<svg width="42" height="49" viewBox="0 0 42 49" fill="none" xmlns="http://www.w3.org/2000/svg">
<rect width="42" height="49" fill="white" fill-opacity="0.01"/>
<path d="M6 8H11.3913V40.069H6V8Z" fill="white"/>
<path d="M24.6 8H29.9913V40.069H24.6V8Z" fill="white"/>
<path d="M31.6087 38.5742C31.6087 37.7487 32.3978 37.0795 33.3712 37.0795H35.2374C36.2109 37.0795 37 37.7487 37 38.5742V38.5742C37 39.3998 36.2109 40.069 35.2374 40.069H33.3712C32.3978 40.069 31.6087 39.3998 31.6087 38.5742V38.5742Z" fill="white"/>
<path d="M13.8174 21.8603V21.8603C17.5393 21.8603 20.5565 24.3739 20.5565 27.4746V40.069H13.8174V21.8603Z" fill="white"/>
<path d="M13.8174 21.5885C15.6047 21.5885 17.3188 20.8727 18.5827 19.5985C19.8465 18.3244 20.5565 16.5962 20.5565 14.7943C20.5565 12.9923 19.8465 11.2642 18.5827 9.99C17.3188 8.71582 15.6047 8 13.8174 8L13.8174 14.7943L13.8174 21.5885Z" fill="white"/>
</svg>
