<svg width="115" height="118" viewBox="0 0 115 118" fill="none" xmlns="http://www.w3.org/2000/svg">
<path d="M0 0H20V118H0V0Z" fill="white"/>
<path d="M69 0H89V118H69V0Z" fill="white"/>
<path d="M95 112.5C95 109.462 97.9274 107 101.538 107H108.462C112.073 107 115 109.462 115 112.5V112.5C115 115.538 112.073 118 108.462 118H101.538C97.9274 118 95 115.538 95 112.5V112.5Z" fill="white"/>
<path d="M29 51V51C42.8071 51 54 60.2491 54 71.6583V118H29V51Z" fill="white"/>
<path d="M29 50C35.6304 50 41.9893 47.3661 46.6777 42.6777C51.3661 37.9893 54 31.6304 54 25C54 18.3696 51.3661 12.0107 46.6777 7.32233C41.9893 2.63392 35.6304 1.00116e-06 29 0L29 25L29 50Z" fill="white"/>
</svg>
